<svg width="24" height="24" viewBox="0 0 24 24" fill="none" xmlns="http://www.w3.org/2000/svg">
<path d="M20.7449 3.25778C19.6198 2.13313 18.0941 1.50134 16.5032 1.50134C14.9124 1.50134 13.3866 2.13313 12.2615 3.25778L5.68962 9.74997C5.54989 9.88888 5.43909 10.0541 5.36362 10.2361C5.28815 10.4181 5.24951 10.6133 5.24993 10.8103V17.6897L2.4693 20.4693C2.39962 20.539 2.34435 20.6218 2.30663 20.7128C2.26892 20.8038 2.24951 20.9014 2.24951 21C2.24951 21.0985 2.26892 21.1961 2.30663 21.2871C2.34435 21.3782 2.39962 21.4609 2.4693 21.5306C2.61003 21.6713 2.80091 21.7504 2.99993 21.7504C3.09847 21.7504 3.19606 21.731 3.2871 21.6933C3.37815 21.6556 3.46087 21.6003 3.53055 21.5306L6.31118 18.75H13.1906C13.3873 18.7503 13.5822 18.7117 13.7641 18.6364C13.9459 18.5611 14.111 18.4506 14.2499 18.3112L20.7402 11.7487C21.2985 11.1918 21.7416 10.5302 22.044 9.80192C22.3464 9.07361 22.5023 8.29283 22.5028 7.50422C22.5032 6.71562 22.3482 5.93466 22.0466 5.20602C21.7449 4.47738 21.3026 3.81534 20.7449 3.25778ZM13.319 4.31809C14.1475 3.48923 15.2667 3.01627 16.4385 2.99982C17.6103 2.98337 18.7423 3.42472 19.5938 4.23C20.4452 5.03529 20.9489 6.14097 20.9978 7.31189C21.0466 8.48281 20.6367 9.62659 19.8552 10.5H14.5621L17.7824 7.28059C17.9232 7.13986 18.0022 6.94899 18.0022 6.74997C18.0022 6.55095 17.9232 6.36007 17.7824 6.21934C17.6417 6.07861 17.4508 5.99955 17.2518 5.99955C17.0528 5.99955 16.8619 6.07861 16.7212 6.21934L11.2499 11.6897V6.36278L13.319 4.31809ZM6.74993 10.814L9.74993 7.84497V13.1887L6.74993 16.1887V10.814ZM13.1906 17.25H7.81118L13.0612 12H18.3806L13.1906 17.25Z" fill="#093F20"/>
</svg>
