<svg width="20" height="20" viewBox="0 0 20 20" fill="none" xmlns="http://www.w3.org/2000/svg">
<path d="M16.25 3.75002C15.2988 3.74916 14.3579 3.94687 13.4875 4.33049C12.3078 2.34846 10.3688 1.36174 10.2797 1.31565C10.1929 1.27219 10.0971 1.24957 10 1.24957C9.9029 1.24957 9.80714 1.27219 9.72031 1.31565C9.63125 1.36096 7.68906 2.34846 6.5125 4.33049C5.64209 3.94687 4.70119 3.74916 3.75 3.75002C3.58424 3.75002 3.42527 3.81587 3.30806 3.93308C3.19085 4.05029 3.125 4.20926 3.125 4.37502V7.50002C3.12706 9.21455 3.76889 10.8666 4.92487 12.1328C6.08084 13.399 7.66775 14.1883 9.375 14.3461V17.1141L6.52969 15.6906C6.45623 15.6539 6.37626 15.632 6.29433 15.6262C6.21241 15.6204 6.13015 15.6307 6.05223 15.6567C5.97432 15.6827 5.90228 15.7237 5.84024 15.7776C5.77819 15.8314 5.72735 15.8969 5.69062 15.9703C5.6539 16.0438 5.63199 16.1238 5.62617 16.2057C5.62035 16.2876 5.63072 16.3699 5.65669 16.4478C5.68266 16.5257 5.72373 16.5977 5.77754 16.6598C5.83135 16.7218 5.89685 16.7727 5.97031 16.8094L9.72031 18.6844C9.80714 18.7278 9.9029 18.7505 10 18.7505C10.0971 18.7505 10.1929 18.7278 10.2797 18.6844L14.0297 16.8094C14.178 16.7352 14.2909 16.6051 14.3433 16.4478C14.3958 16.2904 14.3836 16.1187 14.3094 15.9703C14.2352 15.822 14.1051 15.7092 13.9478 15.6567C13.7904 15.6043 13.6187 15.6165 13.4703 15.6906L10.625 17.1141V14.3461C12.3323 14.1883 13.9192 13.399 15.0751 12.1328C16.2311 10.8666 16.8729 9.21455 16.875 7.50002V4.37502C16.875 4.20926 16.8092 4.05029 16.6919 3.93308C16.5747 3.81587 16.4158 3.75002 16.25 3.75002ZM9.375 13.0906C8.00054 12.9352 6.73131 12.2796 5.80921 11.2485C4.8871 10.2175 4.3766 8.88324 4.375 7.50002V5.0344C5.74946 5.18979 7.01869 5.84548 7.94079 6.87651C8.8629 7.90754 9.3734 9.24181 9.375 10.625V13.0906ZM10 7.76252C9.47422 6.62023 8.64654 5.64317 7.60625 4.93674C8.35391 3.70315 9.48125 2.9133 10 2.59299C10.5195 2.91174 11.6469 3.70158 12.3938 4.93674C11.3536 5.64335 10.526 6.62036 10 7.76252ZM15.625 7.50002C15.6234 8.88324 15.1129 10.2175 14.1908 11.2485C13.2687 12.2796 11.9995 12.9352 10.625 13.0906V10.625C10.6266 9.24181 11.1371 7.90754 12.0592 6.87651C12.9813 5.84548 14.2505 5.18979 15.625 5.0344V7.50002Z" fill="#093F20"/>
</svg>
