<svg width="24" height="24" viewBox="0 0 24 24" fill="none" xmlns="http://www.w3.org/2000/svg">
<path d="M21.4746 5.05215C21.3675 4.42098 21.0668 3.83873 20.6141 3.38605C20.1615 2.93337 19.5792 2.63266 18.948 2.52558C15.9134 2.0109 10.1927 1.77558 5.98523 5.98496C1.77773 10.1943 2.01117 15.9131 2.52586 18.9478C2.63322 19.5796 2.93462 20.1623 3.38821 20.6151C3.8418 21.0678 4.42509 21.3681 5.05711 21.4743C6.12037 21.6557 7.19693 21.7479 8.27555 21.75C11.284 21.75 15.0302 21 18.0152 18.015C22.2237 13.8075 21.9893 8.08683 21.4746 5.05215ZM15.6987 3.73965C16.7042 3.74319 17.7078 3.831 18.6987 4.00215C19.0232 4.05758 19.3224 4.21248 19.5551 4.44544C19.7877 4.67839 19.9421 4.97787 19.9971 5.30246C20.1905 6.42355 20.2753 7.5607 20.2502 8.69808L15.3012 3.74996C15.4324 3.74246 15.5627 3.74058 15.6987 3.74058V3.73965ZM5.30273 19.9968C4.97819 19.9416 4.67881 19.7869 4.44603 19.5542C4.21324 19.3214 4.05855 19.022 4.00336 18.6975C3.80993 17.5764 3.72516 16.4392 3.75023 15.3018L8.69836 20.25C7.56096 20.2755 6.42377 20.1907 5.30273 19.9968ZM16.9559 16.9556C15.8674 18.0431 13.8368 19.5553 10.6399 20.0746L3.92555 13.3603C4.44492 10.1634 5.95711 8.13277 7.04461 7.04433C8.13211 5.9559 10.1627 4.44371 13.3596 3.92433L20.0749 10.6396C19.5555 13.8365 18.0434 15.8671 16.9559 16.9556ZM15.529 8.47121C15.6695 8.61185 15.7485 8.80254 15.7485 9.00137C15.7485 9.20019 15.6695 9.39088 15.529 9.53152L14.1846 10.875L14.779 11.4693C14.8531 11.5379 14.9126 11.6207 14.9539 11.7129C14.9952 11.805 15.0175 11.9045 15.0195 12.0055C15.0214 12.1064 15.003 12.2067 14.9652 12.3003C14.9274 12.394 14.8711 12.479 14.7997 12.5504C14.7283 12.6218 14.6432 12.678 14.5495 12.7156C14.4558 12.7533 14.3555 12.7717 14.2546 12.7697C14.1536 12.7677 14.0541 12.7453 13.962 12.7039C13.87 12.6625 13.7872 12.6029 13.7187 12.5287L13.1252 11.9353L11.9355 13.125L12.5299 13.7193C12.6041 13.7878 12.6637 13.8706 12.7051 13.9627C12.7465 14.0548 12.7689 14.1543 12.7709 14.2552C12.7729 14.3562 12.7545 14.4565 12.7169 14.5502C12.6792 14.6439 12.623 14.729 12.5516 14.8004C12.4802 14.8718 12.3952 14.9281 12.3016 14.9659C12.2079 15.0036 12.1076 15.0221 12.0067 15.0201C11.9057 15.0182 11.8062 14.9959 11.7141 14.9546C11.6219 14.9133 11.5391 14.8538 11.4705 14.7796L10.8752 14.1843L9.53086 15.5287C9.46191 15.6013 9.37912 15.6593 9.28739 15.6994C9.19565 15.7395 9.09683 15.7608 8.99673 15.7621C8.89663 15.7634 8.79728 15.7446 8.70455 15.7069C8.61182 15.6691 8.52758 15.6132 8.45679 15.5425C8.38601 15.4717 8.33011 15.3874 8.29239 15.2947C8.25467 15.202 8.2359 15.1026 8.23719 15.0025C8.23847 14.9024 8.25978 14.8036 8.29985 14.7119C8.33993 14.6201 8.39797 14.5373 8.47055 14.4684L9.81586 13.125L9.22148 12.5306C9.08998 12.3882 9.0187 12.2004 9.02258 12.0067C9.02647 11.8129 9.10523 11.6281 9.24234 11.4911C9.37945 11.3542 9.56427 11.2756 9.75805 11.2718C9.95184 11.2681 10.1395 11.3396 10.2818 11.4712L10.8762 12.0656L12.0649 10.875L11.4705 10.2806C11.3389 10.1383 11.2675 9.95062 11.2712 9.75684C11.2749 9.56306 11.3535 9.37824 11.4905 9.24113C11.6275 9.10402 11.8122 9.02526 12.006 9.02137C12.1998 9.01749 12.3875 9.08877 12.5299 9.22027L13.1252 9.81558L14.4696 8.47121C14.6102 8.33095 14.8007 8.25218 14.9993 8.25218C15.1979 8.25218 15.3884 8.33095 15.529 8.47121Z" fill="#093F20"/>
</svg>
