<svg width="39" height="55" viewBox="0 0 39 55" fill="none" xmlns="http://www.w3.org/2000/svg">
<g clip-path="url(#clip0_27_20111)">
<rect width="38.6486" height="55" rx="19.3243" fill="#DFFCA1"/>
<path opacity="0.1" d="M-28.2432 46.8243C-25.135 29.8261 -0.418638 0.0407719 73.5812 16.8855" stroke="#093F20" stroke-width="0.743243" stroke-miterlimit="1" stroke-dasharray="1.49 1.49"/>
<path opacity="0.1" d="M73.5811 41.6216C70.4729 24.6234 45.7565 -5.16193 -28.2433 11.6828" stroke="#093F20" stroke-width="0.743243" stroke-miterlimit="1" stroke-dasharray="1.49 1.49"/>
<rect x="4.45947" y="18.5811" width="29.7297" height="53.5135" rx="14.8649" fill="white"/>
<rect x="4.08785" y="18.2095" width="30.473" height="54.2568" rx="15.2365" stroke="#093F20" stroke-opacity="0.02" stroke-width="0.743243"/>
<path d="M15.4004 34.2742L12.8265 36.4189L15.4004 38.5636C15.4858 38.6336 15.5564 38.7198 15.6083 38.8172C15.6602 38.9146 15.6923 39.0213 15.7028 39.1312C15.7133 39.241 15.7019 39.3519 15.6693 39.4573C15.6367 39.5628 15.5835 39.6607 15.5129 39.7455C15.4422 39.8303 15.3555 39.9003 15.2577 39.9514C15.1599 40.0025 15.0529 40.0338 14.943 40.0434C14.833 40.0529 14.7222 40.0406 14.6171 40.0072C14.5119 39.9738 14.4144 39.9198 14.3301 39.8485L10.9855 37.0614C10.8913 36.9829 10.8156 36.8847 10.7635 36.7736C10.7115 36.6626 10.6846 36.5415 10.6846 36.4189C10.6846 36.2963 10.7115 36.1752 10.7635 36.0642C10.8156 35.9532 10.8913 35.855 10.9855 35.7765L14.3301 32.9893C14.5008 32.8495 14.7197 32.7828 14.9393 32.8036C15.159 32.8245 15.3614 32.9314 15.5026 33.1009C15.6438 33.2704 15.7123 33.4888 15.6931 33.7086C15.674 33.9284 15.5688 34.1317 15.4004 34.2742ZM27.6639 35.7765L24.3193 32.9893C24.2351 32.918 24.1376 32.8641 24.0324 32.8306C23.9272 32.7972 23.8165 32.7849 23.7065 32.7945C23.5966 32.8041 23.4896 32.8353 23.3918 32.8864C23.294 32.9376 23.2072 33.0075 23.1366 33.0923C23.066 33.1771 23.0128 33.2751 22.9802 33.3805C22.9476 33.486 22.9362 33.5968 22.9467 33.7067C22.9571 33.8166 22.9892 33.9233 23.0411 34.0207C23.093 34.1181 23.1637 34.2042 23.2491 34.2742L25.823 36.4189L23.2491 38.5636C23.1637 38.6336 23.093 38.7198 23.0411 38.8172C22.9892 38.9146 22.9571 39.0213 22.9467 39.1312C22.9362 39.241 22.9476 39.3519 22.9802 39.4573C23.0128 39.5628 23.066 39.6607 23.1366 39.7455C23.2072 39.8303 23.294 39.9003 23.3918 39.9514C23.4896 40.0025 23.5966 40.0338 23.7065 40.0434C23.8165 40.0529 23.9272 40.0406 24.0324 40.0072C24.1376 39.9738 24.2351 39.9198 24.3193 39.8485L27.6639 37.0614C27.7581 36.9829 27.8339 36.8847 27.8859 36.7736C27.9379 36.6626 27.9649 36.5415 27.9649 36.4189C27.9649 36.2963 27.9379 36.1752 27.8859 36.0642C27.8339 35.9532 27.7581 35.855 27.6639 35.7765ZM21.8401 29.5012C21.7369 29.4636 21.6273 29.4468 21.5176 29.4516C21.4079 29.4565 21.3002 29.4829 21.2007 29.5293C21.1012 29.5758 21.0118 29.6414 20.9376 29.7224C20.8635 29.8034 20.806 29.8983 20.7685 30.0015L16.309 42.265C16.2334 42.4734 16.2437 42.7032 16.3375 42.904C16.4313 43.1049 16.601 43.2602 16.8093 43.336C16.9008 43.3697 16.9975 43.387 17.095 43.3868C17.2667 43.3869 17.4342 43.334 17.5748 43.2356C17.7154 43.1371 17.8223 42.9977 17.881 42.8364L22.3404 30.5728C22.378 30.4696 22.3948 30.36 22.39 30.2503C22.3852 30.1406 22.3588 30.0329 22.3123 29.9334C22.2658 29.8339 22.2002 29.7445 22.1192 29.6703C22.0382 29.5962 21.9434 29.5387 21.8401 29.5012Z" fill="#093F20"/>
</g>
<rect x="0.371622" y="0.371622" width="37.9054" height="54.2568" rx="18.9527" stroke="#DFFCA1" stroke-width="0.743243"/>
<defs>
<clipPath id="clip0_27_20111">
<rect width="38.6486" height="55" rx="19.3243" fill="white"/>
</clipPath>
</defs>
</svg>
