<svg width="776" height="222" viewBox="0 0 776 222" fill="none" xmlns="http://www.w3.org/2000/svg">
<path opacity="0.1" d="M63.0474 224H40.3774V129.982H4.19873V111.271H99.3037V129.982H63.0474V224ZM182.375 111.271H204.89V224H182.375V176.331H137.501V224H114.909V111.271H137.501V158.863H182.375V111.271ZM299.374 205.29V224H228.258V111.271H299.374V129.982H250.773V158.94H295.026V176.331H250.773V205.29H299.374ZM416.76 205.29V224H345.645V111.271H416.76V129.982H368.16V158.94H412.413V176.331H368.16V205.29H416.76ZM500.142 111.271H522.812V224H500.686L455.268 148.537H454.492V224H431.977V111.271H453.948L499.366 186.812H500.142V111.271ZM635.308 167.636C635.308 175.089 634.324 182.206 632.357 188.986C630.391 195.766 627.337 201.796 623.196 207.075C619.056 212.303 613.699 216.443 607.125 219.497C600.552 222.499 592.633 224 583.369 224H545.948V111.271H583.369C592.633 111.271 600.552 112.798 607.125 115.852C613.699 118.854 619.056 122.995 623.196 128.274C627.337 133.501 630.391 139.505 632.357 146.286C634.324 153.014 635.308 160.131 635.308 167.636ZM612.715 167.636C612.715 155.11 610.464 145.716 605.961 139.454C601.458 133.139 593.927 129.982 583.369 129.982H568.462V205.29H583.369C593.927 205.29 601.458 202.158 605.961 195.896C610.464 189.633 612.715 180.213 612.715 167.636Z" fill="black"/>
<g opacity="0.1">
<path d="M748.717 77.3129C748.233 77.032 747.701 76.7631 747.151 76.5001C747.701 76.2371 748.233 75.9682 748.717 75.6873C751.458 74.129 753.863 72.044 755.795 69.5523C757.726 67.0606 759.146 64.2114 759.972 61.1688C760.798 58.1262 761.014 54.9503 760.608 51.8238C760.201 48.6973 759.181 45.6821 757.604 42.9518C756.028 40.2214 753.927 37.8299 751.423 35.9148C748.918 33.9997 746.06 32.5989 743.012 31.793C739.963 30.9872 736.786 30.7922 733.662 31.2193C730.539 31.6464 727.53 32.6872 724.811 34.2817C724.326 34.5626 723.824 34.8793 723.328 35.2319C723.376 34.6343 723.406 34.0366 723.406 33.439C723.406 27.0986 720.887 21.018 716.404 16.5347C711.921 12.0514 705.84 9.53271 699.5 9.53271C693.159 9.53271 687.079 12.0514 682.596 16.5347C678.112 21.018 675.594 27.0986 675.594 33.439C675.594 34.0008 675.594 34.5984 675.671 35.2319C675.175 34.8913 674.673 34.5626 674.189 34.2817C671.469 32.6872 668.461 31.6464 665.337 31.2193C662.214 30.7922 659.036 30.9872 655.988 31.793C652.94 32.5989 650.082 33.9997 647.577 35.9148C645.073 37.8299 642.972 40.2214 641.395 42.9518C639.819 45.6821 638.798 48.6973 638.392 51.8238C637.985 54.9503 638.201 58.1262 639.028 61.1688C639.854 64.2114 641.273 67.0606 643.205 69.5523C645.137 72.044 647.542 74.129 650.283 75.6873C650.767 75.9682 651.299 76.2371 651.849 76.5001C651.299 76.7631 650.767 77.032 650.283 77.3129C647.542 78.8712 645.137 80.9562 643.205 83.4479C641.273 85.9396 639.854 88.7887 639.028 91.8314C638.201 94.874 637.985 98.0499 638.392 101.176C638.798 104.303 639.819 107.318 641.395 110.048C642.972 112.779 645.073 115.17 647.577 117.085C650.082 119 652.94 120.401 655.988 121.207C659.036 122.013 662.214 122.208 665.337 121.781C668.461 121.354 671.469 120.313 674.189 118.719C674.673 118.438 675.175 118.121 675.671 117.768C675.623 118.366 675.594 118.964 675.594 119.531C675.594 125.872 678.112 131.952 682.596 136.436C687.079 140.919 693.159 143.438 699.5 143.438C705.84 143.438 711.921 140.919 716.404 136.436C720.887 131.952 723.406 125.872 723.406 119.531C723.406 118.97 723.376 118.372 723.328 117.768C723.824 118.109 724.326 118.438 724.811 118.719C728.432 120.816 732.543 121.921 736.728 121.922C738.831 121.919 740.924 121.642 742.955 121.097C747.523 119.873 751.624 117.322 754.741 113.767C757.859 110.212 759.852 105.812 760.468 101.124C761.085 96.436 760.298 91.6705 758.206 87.43C756.114 83.1895 752.812 79.6646 748.717 77.3009V77.3129ZM685.156 76.5001C685.156 73.6632 685.997 70.8899 687.573 68.5311C689.15 66.1723 691.39 64.3338 694.011 63.2482C696.632 62.1626 699.516 61.8785 702.298 62.432C705.081 62.9854 707.636 64.3515 709.642 66.3575C711.648 68.3635 713.015 70.9194 713.568 73.7018C714.121 76.4842 713.837 79.3682 712.752 81.9892C711.666 84.6102 709.828 86.8504 707.469 88.4265C705.11 90.0026 702.337 90.8438 699.5 90.8438C695.696 90.8438 692.047 89.3326 689.357 86.6427C686.667 83.9527 685.156 80.3043 685.156 76.5001ZM729.592 42.5592C731.223 41.6174 733.024 41.0061 734.892 40.7602C736.759 40.5144 738.657 40.6388 740.476 41.1263C742.296 41.6139 744.001 42.455 745.496 43.6017C746.99 44.7484 748.244 46.1783 749.186 47.8096C750.128 49.4409 750.739 51.2418 750.985 53.1093C751.231 54.9769 751.106 56.8746 750.619 58.6941C750.131 60.5136 749.29 62.2192 748.143 63.7136C746.997 65.208 745.567 66.4619 743.936 67.4038C740.188 69.5733 732.813 71.0674 722.922 71.7009C721.879 66.6409 719.224 62.055 715.356 58.6302C720.854 50.3706 725.845 44.7287 729.592 42.5592ZM699.5 19.1251C703.304 19.1251 706.952 20.6363 709.642 23.3263C712.332 26.0163 713.844 29.6646 713.844 33.4688C713.844 37.7959 711.453 44.9379 707.054 53.825C702.152 52.1835 696.848 52.1835 691.945 53.825C687.547 44.9379 685.156 37.7959 685.156 33.4688C685.156 29.6646 686.667 26.0163 689.357 23.3263C692.047 20.6363 695.696 19.1251 699.5 19.1251ZM649.811 47.8126C650.752 46.1806 652.006 44.7501 653.501 43.6028C654.995 42.4555 656.701 41.6139 658.521 41.1261C660.341 40.6382 662.239 40.5137 664.107 40.7596C665.975 41.0055 667.776 41.617 669.408 42.5592C673.155 44.7287 678.146 50.3706 683.644 58.6302C679.772 62.0597 677.118 66.6523 676.078 71.7188C666.186 71.0853 658.811 69.5912 655.064 67.4277C653.43 66.4861 651.997 65.2314 650.848 63.7355C649.699 62.2396 648.857 60.5317 648.369 58.7098C647.881 56.8878 647.757 54.9875 648.005 53.1176C648.252 51.2477 648.866 49.445 649.811 47.8126ZM669.408 110.441C666.113 112.343 662.198 112.859 658.523 111.874C654.849 110.889 651.716 108.485 649.814 105.191C647.912 101.896 647.396 97.9807 648.381 94.3061C649.365 90.6315 651.769 87.4985 655.064 85.5964C658.811 83.4269 666.186 81.9328 676.078 81.2993C677.121 86.3593 679.776 90.9452 683.644 94.37C678.146 102.63 673.155 108.271 669.408 110.441ZM699.5 133.875C695.696 133.875 692.047 132.364 689.357 129.674C686.667 126.984 685.156 123.336 685.156 119.531C685.156 115.204 687.547 108.062 691.945 99.1752C696.848 100.817 702.152 100.817 707.054 99.1752C711.453 108.062 713.844 115.204 713.844 119.531C713.844 123.336 712.332 126.984 709.642 129.674C706.952 132.364 703.304 133.875 699.5 133.875ZM749.189 105.188C748.247 106.82 746.994 108.25 745.499 109.397C744.005 110.545 742.299 111.386 740.479 111.874C738.659 112.362 736.761 112.486 734.893 112.241C733.025 111.995 731.223 111.383 729.592 110.441C725.845 108.271 720.854 102.63 715.356 94.37C719.227 90.9405 721.882 86.3478 722.922 81.2813C732.813 81.9149 740.188 83.409 743.936 85.5725C745.57 86.5141 747.003 87.7687 748.151 89.2647C749.3 90.7606 750.143 92.4685 750.631 94.2904C751.119 96.1124 751.243 98.0127 750.995 99.8826C750.748 101.752 750.134 103.555 749.189 105.188Z" fill="black"/>
</g>
</svg>
