<svg width="24" height="24" viewBox="0 0 24 24" fill="none" xmlns="http://www.w3.org/2000/svg">
<path d="M15.3752 7.5C15.8944 7.5 16.4019 7.34605 16.8336 7.05761C17.2652 6.76917 17.6017 6.3592 17.8004 5.87955C17.999 5.39989 18.051 4.87209 17.9497 4.36289C17.8485 3.85369 17.5985 3.38596 17.2313 3.01885C16.8642 2.65173 16.3965 2.40173 15.8873 2.30044C15.3781 2.19915 14.8503 2.25114 14.3706 2.44982C13.891 2.6485 13.481 2.98495 13.1926 3.41663C12.9041 3.84831 12.7502 4.35583 12.7502 4.875C12.7502 5.57119 13.0267 6.23887 13.519 6.73116C14.0113 7.22344 14.679 7.5 15.3752 7.5ZM15.3752 3.75C15.5977 3.75 15.8152 3.81598 16.0002 3.9396C16.1852 4.06321 16.3294 4.23892 16.4145 4.44448C16.4997 4.65005 16.522 4.87625 16.4786 5.09448C16.4352 5.31271 16.328 5.51316 16.1707 5.6705C16.0133 5.82783 15.8129 5.93498 15.5947 5.97838C15.3764 6.02179 15.1502 5.99951 14.9447 5.91437C14.7391 5.82922 14.5634 5.68502 14.4398 5.50002C14.3162 5.31501 14.2502 5.09751 14.2502 4.875C14.2502 4.57663 14.3687 4.29048 14.5797 4.07951C14.7907 3.86853 15.0768 3.75 15.3752 3.75ZM23.8952 18.3675L18.7802 9.735C18.6483 9.51012 18.4596 9.32385 18.233 9.19486C18.0064 9.06586 17.75 8.99867 17.4892 9C17.2287 8.99864 16.9723 9.06583 16.7459 9.19484C16.5195 9.32385 16.3309 9.51013 16.1992 9.735L13.7467 13.875L9.543 6.74063C9.41053 6.5155 9.22158 6.32886 8.99483 6.19919C8.76808 6.06952 8.5114 6.00131 8.25019 6.00131C7.98898 6.00131 7.7323 6.06952 7.50555 6.19919C7.2788 6.32886 7.08984 6.5155 6.95737 6.74063L0.104249 18.3694C0.0371686 18.4833 0.00137865 18.6129 0.000504681 18.745C-0.000369293 18.8772 0.0337038 19.0073 0.0992727 19.122C0.164842 19.2368 0.259577 19.3322 0.373884 19.3986C0.488191 19.465 0.618008 19.4999 0.750187 19.5H23.2502C23.3826 19.5 23.5126 19.4649 23.627 19.3984C23.7415 19.3318 23.8363 19.2362 23.9018 19.1212C23.9673 19.0061 24.0012 18.8758 24 18.7435C23.9989 18.6111 23.9627 18.4814 23.8952 18.3675ZM8.25019 7.5L10.4599 11.25H6.0405L8.25019 7.5ZM2.06269 18L5.15644 12.75H11.3439L13.1008 15.7313L14.4377 18H2.06269ZM16.1786 18L14.6167 15.3488L17.4892 10.5L21.9377 18H16.1786Z" fill="#DFFCA1"/>
</svg>
