<svg width="27" height="62" viewBox="0 0 27 62" fill="none" xmlns="http://www.w3.org/2000/svg">
<path opacity="0.2" d="M17.2877 0.238366C17.1432 0.00306728 16.8353 -0.0705158 16.6 0.0740141C16.3647 0.218544 16.2911 0.526456 16.4356 0.761756L16.8617 0.500061L17.2877 0.238366ZM26.2709 22.6749L25.7739 22.729L26.2709 22.6749ZM25.7753 31.9042L25.2859 31.8016L25.7753 31.9042ZM23.9499 35.8652L23.5279 35.597L23.9499 35.8652ZM20.4518 40.0243L20.1199 39.6503L20.4518 40.0243ZM15.8116 42.8723L15.6341 42.4048L15.8116 42.8723ZM11.0416 43.6417L11.0504 43.1418L11.0416 43.6417ZM2.40759 40.6185L2.72139 40.2292L2.40759 40.6185ZM0.660894 37.6506L0.17761 37.7788L0.660894 37.6506ZM0.714916 34.3501L0.240631 34.1918L0.714916 34.3501ZM12.4018 32.6622L12.1364 33.086L12.4018 32.6622ZM17.0027 37.7366L16.5691 37.9856L17.0027 37.7366ZM19.3818 45.1875L18.8868 45.2586L19.3818 45.1875ZM19.7372 53.0125L19.2376 52.9926L19.7372 53.0125ZM19.1088 58.4411L18.6199 58.3366L19.1088 58.4411ZM17.7346 61.7097C17.8504 61.9604 18.1475 62.0698 18.3982 61.954L22.4835 60.0671C22.7342 59.9513 22.8435 59.6542 22.7278 59.4035C22.612 59.1528 22.3149 59.0434 22.0642 59.1592L18.4328 60.8365L16.7556 57.2051C16.6398 56.9544 16.3427 56.8451 16.092 56.9608C15.8413 57.0766 15.7319 57.3737 15.8477 57.6244L17.7346 61.7097ZM17.3814 2.30352C17.5256 2.53907 17.8333 2.61318 18.0689 2.46906C18.3044 2.32494 18.3786 2.01715 18.2344 1.7816L17.8079 2.04256L17.3814 2.30352ZM20.1088 4.88609C19.9681 4.64849 19.6614 4.56995 19.4238 4.71067C19.1862 4.85139 19.1076 5.15807 19.2484 5.39567L19.6786 5.14088L20.1088 4.88609ZM21.0398 8.52168C21.1728 8.76368 21.4768 8.85203 21.7188 8.71902C21.9608 8.58602 22.0491 8.28201 21.9161 8.04001L21.4779 8.28085L21.0398 8.52168ZM23.5876 11.2829C23.4691 11.0335 23.1708 10.9274 22.9214 11.0459C22.672 11.1644 22.5659 11.4627 22.6844 11.7121L23.136 11.4975L23.5876 11.2829ZM24.2717 15.6128C24.359 15.8747 24.6422 16.0162 24.9042 15.9289C25.1661 15.8415 25.3077 15.5583 25.2203 15.2964L24.746 15.4546L24.2717 15.6128ZM26.4298 20.1495C26.3835 19.8773 26.1253 19.6941 25.8531 19.7404C25.5808 19.7866 25.3976 20.0448 25.4439 20.3171L25.9368 20.2333L26.4298 20.1495ZM25.9361 25.0056C25.9448 25.2816 26.1757 25.4983 26.4517 25.4895C26.7277 25.4808 26.9443 25.2499 26.9356 24.9739L26.4358 24.9898L25.9361 25.0056ZM26.6766 29.6894C26.7153 29.416 26.525 29.163 26.2516 29.1243C25.9782 29.0856 25.7252 29.2759 25.6865 29.5493L26.1816 29.6193L26.6766 29.6894ZM25.0035 32.7872C24.9095 33.0469 25.0438 33.3335 25.3035 33.4275C25.5631 33.5215 25.8498 33.3872 25.9438 33.1275L25.4737 32.9574L25.0035 32.7872ZM24.9541 35.1811C25.093 34.9424 25.0121 34.6364 24.7734 34.4975C24.5347 34.3586 24.2286 34.4396 24.0898 34.6782L24.522 34.9297L24.9541 35.1811ZM22.7784 36.6961C22.6155 36.9191 22.6643 37.2319 22.8874 37.3948C23.1104 37.5576 23.4232 37.5088 23.586 37.2858L23.1822 36.9909L22.7784 36.6961ZM21.7941 39.4265C21.9856 39.2276 21.9796 38.9111 21.7807 38.7196C21.5818 38.528 21.2652 38.534 21.0737 38.733L21.4339 39.0798L21.7941 39.4265ZM19.0918 40.4861C18.8702 40.6509 18.8242 40.9641 18.9891 41.1857C19.1539 41.4072 19.4671 41.4532 19.6887 41.2884L19.3902 40.8872L19.0918 40.4861ZM17.2871 42.7695C17.5342 42.6462 17.6345 42.346 17.5112 42.0989C17.3879 41.8518 17.0876 41.7514 16.8406 41.8748L17.0638 42.3221L17.2871 42.7695ZM14.5267 42.7619C14.2598 42.8327 14.1009 43.1065 14.1717 43.3734C14.2425 43.6403 14.5163 43.7993 14.7832 43.7284L14.655 43.2452L14.5267 42.7619ZM12.2856 44.1189C12.5613 44.103 12.7719 43.8666 12.756 43.5909C12.7401 43.3153 12.5037 43.1047 12.2281 43.1206L12.2568 43.6197L12.2856 44.1189ZM8.81283 42.9271C8.54086 42.8793 8.28163 43.061 8.23382 43.333C8.18602 43.6049 8.36774 43.8642 8.63972 43.912L8.72627 43.4195L8.81283 42.9271ZM4.1072 42.3422C4.34998 42.4738 4.65346 42.3836 4.78503 42.1409C4.91661 41.8981 4.82646 41.5946 4.58367 41.463L4.34544 41.9026L4.1072 42.3422ZM2.17057 39.6848C1.99454 39.4721 1.67936 39.4423 1.4666 39.6183C1.25384 39.7943 1.22406 40.1095 1.40009 40.3223L1.78533 40.0036L2.17057 39.6848ZM0.458867 38.6629C0.556969 38.9211 0.845752 39.0508 1.10388 38.9527C1.36201 38.8546 1.49174 38.5658 1.39363 38.3077L0.92625 38.4853L0.458867 38.6629ZM0.996002 36.7665C0.960873 36.4926 0.710356 36.2991 0.436457 36.3342C0.162558 36.3693 -0.0310023 36.6198 0.00412747 36.8937L0.500065 36.8301L0.996002 36.7665ZM0.0242271 35.0843C-0.018877 35.3571 0.167294 35.6131 0.440051 35.6562C0.712809 35.6993 0.968865 35.5132 1.01197 35.2404L0.518098 35.1624L0.0242271 35.0843ZM1.48137 33.8389C1.61394 33.5966 1.52503 33.2928 1.28278 33.1602C1.04054 33.0277 0.7367 33.1166 0.604136 33.3588L1.04276 33.5988L1.48137 33.8389ZM1.71736 31.9494C1.51437 32.1366 1.50158 32.4529 1.6888 32.6559C1.87601 32.8589 2.19234 32.8717 2.39533 32.6845L2.05634 32.3169L1.71736 31.9494ZM3.84761 31.7227C4.10112 31.6132 4.21786 31.3189 4.10836 31.0654C3.99887 30.8119 3.7046 30.6951 3.45109 30.8046L3.64935 31.2637L3.84761 31.7227ZM5.77437 30.3281C5.49831 30.3352 5.28024 30.5647 5.28728 30.8407C5.29432 31.1168 5.52381 31.3349 5.79986 31.3278L5.78711 30.828L5.77437 30.3281ZM8.25052 31.5491C8.52244 31.5972 8.78189 31.4158 8.83002 31.1439C8.87816 30.872 8.69675 30.6125 8.42483 30.5644L8.33768 31.0567L8.25052 31.5491ZM11.3389 31.4984C11.0903 31.3781 10.7913 31.4822 10.6711 31.7307C10.5508 31.9793 10.6548 32.2783 10.9034 32.3986L11.1212 31.9485L11.3389 31.4984ZM13.4971 34.0515C13.7104 34.2269 14.0255 34.1961 14.2008 33.9828C14.3762 33.7695 14.3454 33.4544 14.1321 33.279L13.8146 33.6653L13.4971 34.0515ZM16.5109 35.9815C16.3576 35.7517 16.0472 35.6897 15.8175 35.8429C15.5877 35.9962 15.5257 36.3066 15.6789 36.5363L16.0949 36.2589L16.5109 35.9815ZM17.3936 39.6953C17.4985 39.9508 17.7906 40.0729 18.046 39.9681C18.3015 39.8632 18.4236 39.5712 18.3188 39.3157L17.8562 39.5055L17.3936 39.6953ZM19.511 43.1449C19.45 42.8756 19.1823 42.7067 18.913 42.7676C18.6436 42.8286 18.4747 43.0963 18.5357 43.3656L19.0233 43.2553L19.511 43.1449ZM19.108 47.1794C19.1324 47.4545 19.3752 47.6577 19.6502 47.6334C19.9253 47.609 20.1285 47.3662 20.1041 47.0912L19.6061 47.1353L19.108 47.1794ZM20.2751 51.052C20.2749 50.7758 20.0508 50.5522 19.7747 50.5524C19.4985 50.5526 19.2749 50.7767 19.2751 51.0528L19.7751 51.0524L20.2751 51.052ZM19.1623 54.3425C19.1424 54.6179 19.3495 54.8573 19.6249 54.8773C19.9003 54.8972 20.1398 54.6901 20.1597 54.4147L19.661 54.3786L19.1623 54.3425ZM19.8506 57.1739C19.8934 56.9011 19.7069 56.6452 19.4341 56.6024C19.1613 56.5596 18.9055 56.746 18.8627 57.0188L19.3566 57.0964L19.8506 57.1739ZM18.442 59.0953C18.3733 59.3628 18.5345 59.6353 18.802 59.7039C19.0695 59.7726 19.3419 59.6114 19.4106 59.3439L18.9263 59.2196L18.442 59.0953ZM18.9325 60.9134C19.0236 60.6527 18.8862 60.3675 18.6256 60.2764C18.3649 60.1852 18.0797 60.3227 17.9885 60.5833L18.4605 60.7484L18.9325 60.9134ZM16.8617 0.500061L16.4356 0.761756C16.7517 1.27625 17.0674 1.79031 17.3814 2.30352L17.8079 2.04256L18.2344 1.7816C17.9199 1.26753 17.6037 0.752735 17.2877 0.238366L16.8617 0.500061ZM19.6786 5.14088L19.2484 5.39567C19.874 6.45208 20.4762 7.49631 21.0398 8.52168L21.4779 8.28085L21.9161 8.04001C21.3459 7.00263 20.7381 5.94873 20.1088 4.88609L19.6786 5.14088ZM23.136 11.4975L22.6844 11.7121C22.9471 12.2648 23.1918 12.8083 23.416 13.3415L23.8769 13.1477L24.3378 12.9538C24.107 12.405 23.8559 11.8475 23.5876 11.2829L23.136 11.4975ZM23.8769 13.1477L23.416 13.3415C23.7456 14.1252 24.0283 14.8831 24.2717 15.6128L24.746 15.4546L25.2203 15.2964C24.9691 14.5433 24.6775 13.7616 24.3378 12.9538L23.8769 13.1477ZM25.9368 20.2333L25.4439 20.3171C25.5936 21.1981 25.695 22.0042 25.7739 22.729L26.2709 22.6749L26.768 22.6209C26.6878 21.8835 26.5839 21.0564 26.4298 20.1495L25.9368 20.2333ZM26.2709 22.6749L25.7739 22.729C25.8609 23.5295 25.9132 24.2855 25.9361 25.0056L26.4358 24.9898L26.9356 24.9739C26.9119 24.2275 26.8578 23.446 26.768 22.6209L26.2709 22.6749ZM26.1816 29.6193L25.6865 29.5493C25.5779 30.317 25.4409 31.0616 25.2859 31.8016L25.7753 31.9042L26.2646 32.0067C26.4231 31.2506 26.5642 30.4837 26.6766 29.6894L26.1816 29.6193ZM25.7753 31.9042L25.2859 31.8016C25.2159 32.1355 25.1212 32.4621 25.0035 32.7872L25.4737 32.9574L25.9438 33.1275C26.0761 32.7621 26.1843 32.3903 26.2646 32.0067L25.7753 31.9042ZM24.522 34.9297L24.0898 34.6782C23.9165 34.9761 23.7289 35.2808 23.5279 35.597L23.9499 35.8652L24.3719 36.1334C24.5775 35.8099 24.7724 35.4935 24.9541 35.1811L24.522 34.9297ZM23.9499 35.8652L23.5279 35.597C23.2987 35.9577 23.0484 36.3262 22.7784 36.6961L23.1822 36.9909L23.586 37.2858C23.869 36.8981 24.1314 36.5118 24.3719 36.1334L23.9499 35.8652ZM21.4339 39.0798L21.0737 38.733C20.769 39.0495 20.4507 39.3568 20.1199 39.6503L20.4518 40.0243L20.7836 40.3983C21.1353 40.0863 21.4725 39.7606 21.7941 39.4265L21.4339 39.0798ZM20.4518 40.0243L20.1199 39.6503C19.7875 39.9452 19.4437 40.2242 19.0918 40.4861L19.3902 40.8872L19.6887 41.2884C20.0633 41.0096 20.4294 40.7125 20.7836 40.3983L20.4518 40.0243ZM17.0638 42.3221L16.8406 41.8748C16.4377 42.0758 16.0341 42.253 15.6341 42.4048L15.8116 42.8723L15.9891 43.3397C16.4215 43.1755 16.8556 42.9848 17.2871 42.7695L17.0638 42.3221ZM15.8116 42.8723L15.6341 42.4048C15.2605 42.5467 14.8927 42.6648 14.5267 42.7619L14.655 43.2452L14.7832 43.7284C15.1831 43.6223 15.5838 43.4936 15.9891 43.3397L15.8116 42.8723ZM12.2568 43.6197L12.2281 43.1206C11.8453 43.1426 11.4542 43.1489 11.0504 43.1418L11.0416 43.6417L11.0327 44.1416C11.4583 44.1492 11.8747 44.1426 12.2856 44.1189L12.2568 43.6197ZM11.0416 43.6417L11.0504 43.1418C10.2795 43.1282 9.53177 43.0534 8.81283 42.9271L8.72627 43.4195L8.63972 43.912C9.40892 44.0472 10.2087 44.1271 11.0327 44.1416L11.0416 43.6417ZM4.34544 41.9026L4.58367 41.463C3.89695 41.0909 3.27283 40.6737 2.72139 40.2292L2.40759 40.6185L2.0938 41.0077C2.69388 41.4915 3.36879 41.942 4.1072 42.3422L4.34544 41.9026ZM2.40759 40.6185L2.72139 40.2292C2.51373 40.0618 2.33152 39.8794 2.17057 39.6848L1.78533 40.0036L1.40009 40.3223C1.602 40.5663 1.83173 40.7965 2.0938 41.0077L2.40759 40.6185ZM0.92625 38.4853L1.39363 38.3077C1.29668 38.0525 1.21507 37.7897 1.14418 37.5224L0.660894 37.6506L0.17761 37.7788C0.255477 38.0724 0.347221 38.3692 0.458867 38.6629L0.92625 38.4853ZM0.660894 37.6506L1.14418 37.5224C1.07827 37.274 1.02863 37.0209 0.996002 36.7665L0.500065 36.8301L0.00412747 36.8937C0.0423704 37.1919 0.100491 37.4881 0.17761 37.7788L0.660894 37.6506ZM0.518098 35.1624L1.01197 35.2404C1.05178 34.9885 1.11077 34.7434 1.1892 34.5084L0.714916 34.3501L0.240631 34.1918C0.143809 34.4819 0.0721784 34.7809 0.0242271 35.0843L0.518098 35.1624ZM0.714916 34.3501L1.1892 34.5084C1.26717 34.2748 1.36492 34.0517 1.48137 33.8389L1.04276 33.5988L0.604136 33.3588C0.459364 33.6234 0.337642 33.9011 0.240631 34.1918L0.714916 34.3501ZM2.05634 32.3169L2.39533 32.6845C2.57531 32.5185 2.77145 32.361 2.98312 32.2123L2.69571 31.8032L2.4083 31.394C2.16266 31.5666 1.93178 31.7516 1.71736 31.9494L2.05634 32.3169ZM2.69571 31.8032L2.98312 32.2123C3.25011 32.0247 3.53235 31.8588 3.84761 31.7227L3.64935 31.2637L3.45109 30.8046C3.06227 30.9726 2.72056 31.1747 2.4083 31.394L2.69571 31.8032ZM5.78711 30.828L5.79986 31.3278C6.11477 31.3198 6.45916 31.3313 6.83789 31.3662L6.88381 30.8684L6.92972 30.3705C6.51592 30.3323 6.13218 30.319 5.77437 30.3281L5.78711 30.828ZM6.88381 30.8684L6.83789 31.3662C7.34148 31.4127 7.80664 31.4705 8.25052 31.5491L8.33768 31.0567L8.42483 30.5644C7.9462 30.4797 7.45225 30.4187 6.92972 30.3705L6.88381 30.8684ZM11.1212 31.9485L10.9034 32.3986C11.297 32.589 11.7042 32.8153 12.1364 33.086L12.4018 32.6622L12.6671 32.2384C12.2079 31.9508 11.769 31.7065 11.3389 31.4984L11.1212 31.9485ZM12.4018 32.6622L12.1364 33.086C12.6458 33.405 13.0904 33.7172 13.4971 34.0515L13.8146 33.6653L14.1321 33.279C13.6847 32.9112 13.2035 32.5743 12.6671 32.2384L12.4018 32.6622ZM16.0949 36.2589L15.6789 36.5363C15.9634 36.9629 16.2564 37.4411 16.5691 37.9856L17.0027 37.7366L17.4363 37.4876C17.1155 36.9289 16.8106 36.431 16.5109 35.9815L16.0949 36.2589ZM17.0027 37.7366L16.5691 37.9856C16.8578 38.4884 17.1352 39.0655 17.3936 39.6953L17.8562 39.5055L18.3188 39.3157C18.047 38.6533 17.7509 38.0355 17.4363 37.4876L17.0027 37.7366ZM19.0233 43.2553L18.5357 43.3656C18.6785 43.9971 18.797 44.6332 18.8868 45.2586L19.3818 45.1875L19.8767 45.1164C19.7828 44.4633 19.6595 43.8011 19.511 43.1449L19.0233 43.2553ZM19.3818 45.1875L18.8868 45.2586C18.9781 45.8936 19.0511 46.5367 19.108 47.1794L19.6061 47.1353L20.1041 47.0912C20.0457 46.4321 19.9707 45.771 19.8767 45.1164L19.3818 45.1875ZM19.7751 51.0524L19.2751 51.0528C19.2757 51.7259 19.2621 52.3763 19.2376 52.9926L19.7372 53.0125L20.2368 53.0325C20.2619 52.4029 20.2757 51.7389 20.2751 51.052L19.7751 51.0524ZM19.7372 53.0125L19.2376 52.9926C19.2187 53.4662 19.1932 53.9157 19.1623 54.3425L19.661 54.3786L20.1597 54.4147C20.1914 53.9769 20.2175 53.5166 20.2368 53.0325L19.7372 53.0125ZM19.3566 57.0964L18.8627 57.0188C18.787 57.5008 18.7049 57.9388 18.6199 58.3366L19.1088 58.4411L19.5977 58.5457C19.6867 58.1297 19.7721 57.6737 19.8506 57.1739L19.3566 57.0964ZM19.1088 58.4411L18.6199 58.3366C18.5615 58.6093 18.5022 58.8606 18.442 59.0953L18.9263 59.2196L19.4106 59.3439C19.4742 59.0958 19.5367 58.8313 19.5977 58.5457L19.1088 58.4411ZM18.4605 60.7484L17.9885 60.5833C17.9005 60.8351 17.8111 61.078 17.7193 61.3273L18.1885 61.5001L18.6578 61.6728C18.7491 61.4246 18.8413 61.1742 18.9325 60.9134L18.4605 60.7484Z" fill="#094020"/>
</svg>
